<?xml version="1.0" encoding="UTF-8" standalone="no"?>
<svg
   xmlns:dc="http://purl.org/dc/elements/1.1/"
   xmlns:cc="http://creativecommons.org/ns#"
   xmlns:rdf="http://www.w3.org/1999/02/22-rdf-syntax-ns#"
   xmlns:svg="http://www.w3.org/2000/svg"
   xmlns="http://www.w3.org/2000/svg"
   xmlns:sodipodi="http://sodipodi.sourceforge.net/DTD/sodipodi-0.dtd"
   xmlns:inkscape="http://www.inkscape.org/namespaces/inkscape"
   version="1.1"
   width="276"
   height="276"
   viewBox="0 0 276 276"
   id="svg4"
   sodipodi:docname="lock-open-unknow.svg"
   inkscape:export-filename="C:\Users\ciber\Downloads\override@2x.png"
   inkscape:export-xdpi="96"
   inkscape:export-ydpi="96"
   inkscape:version="0.92.2 (5c3e80d, 2017-08-06)">
  <metadata
     id="metadata10">
    <rdf:RDF>
      <cc:Work
         rdf:about="">
        <dc:format>image/svg+xml</dc:format>
        <dc:type
           rdf:resource="http://purl.org/dc/dcmitype/StillImage" />
        <dc:title />
      </cc:Work>
    </rdf:RDF>
  </metadata>
  <defs
     id="defs8" />
  <sodipodi:namedview
     pagecolor="#ffffff"
     bordercolor="#666666"
     borderopacity="1"
     objecttolerance="10"
     gridtolerance="10"
     guidetolerance="10"
     inkscape:pageopacity="0"
     inkscape:pageshadow="2"
     inkscape:window-width="1920"
     inkscape:window-height="1017"
     id="namedview6"
     showgrid="false"
     inkscape:zoom="2.4583333"
     inkscape:cx="-4.0713018"
     inkscape:cy="164.95393"
     inkscape:window-x="-8"
     inkscape:window-y="-8"
     inkscape:window-maximized="1"
     inkscape:current-layer="layer4" />
  <g
     inkscape:groupmode="layer"
     id="layer1"
     inkscape:label="lock"
     style="display:none">
    <path
       id="path4506"
       d="m 137.99999,173.61905 a 12.952382,12.952382 0 0 0 12.95238,-12.95238 c 0,-7.18858 -5.82857,-12.95239 -12.95238,-12.95239 a 12.952382,12.952382 0 0 0 -12.95238,12.95239 12.952382,12.952382 0 0 0 12.95238,12.95238 m 38.85714,-58.28572 a 12.952382,12.952382 0 0 1 12.95239,12.95238 v 64.76191 A 12.952382,12.952382 0 0 1 176.85713,206 H 99.142855 a 12.952382,12.952382 0 0 1 -12.95238,-12.95238 v -64.76191 c 0,-7.18857 5.82857,-12.95238 12.95238,-12.95238 h 6.476195 V 102.38095 A 32.380954,32.380954 0 0 1 138,69.999997 32.380954,32.380954 0 0 1 170.38094,102.38095 v 12.95238 h 6.47619 M 137.99999,82.952378 a 19.428572,19.428572 0 0 0 -19.42857,19.428572 v 12.95238 h 38.85714 V 102.38095 A 19.428572,19.428572 0 0 0 137.99999,82.952378 Z"
       inkscape:connector-curvature="0"
       style="fill:#c6c7cc;fill-opacity:1;stroke-width:6.47619057" />
  </g>
  <g
     inkscape:groupmode="layer"
     id="layer3"
     inkscape:label="unknow"
     style="display:none">
    <path
       id="path815"
       d="m 124.59364,185.6 h 20.4 V 206 h -20.4 v -20.4 m 13.6,-115.600001 c 36.38,1.496 52.224,38.216001 30.6,65.756001 -5.644,6.8 -14.756,11.288 -19.244,17 -4.556,5.644 -4.556,12.444 -4.556,19.244 h -20.4 c 0,-11.356 0,-20.944 4.556,-27.744 4.488,-6.8 13.6,-10.812 19.244,-15.3 16.456,-15.232 12.376,-36.788001 -10.2,-38.556001 A 20.4,20.4 0 0 0 117.79364,110.8 H 97.393636 A 40.8,40.8 0 0 1 138.19364,69.999999 Z"
       inkscape:connector-curvature="0"
       style="fill:#c6c7cc;fill-opacity:1;stroke-width:0.1;stroke-miterlimit:4;stroke-dasharray:none" />
  </g>
  <g
     inkscape:groupmode="layer"
     id="layer4"
     inkscape:label="override">
    <path
       id="path817"
       d="m 116.67858,70.000001 v 22.714287 c 22.14286,21.785712 43.57143,43.714282 65.71429,65.142852 1.42857,-2.14285 4.28571,-3.57142 5.71428,-6.42857 v -40 c 0,-8 -9.28571,-11.714282 -14.28571,-13.999997 V 70.000001 h -14.28572 v 28.57143 h -28.57143 v -28.57143 h -14.28571 m -33.7143,7.142858 c -3.07143,3 -6.07143,6.071428 -9.14286,9.071428 l 28.57143,28.571433 v 37.35714 c 8.35716,8.21428 16.64287,16.64285 25.00002,25 v 21.42857 h 35.71428 v -21.42857 c 1.57143,-1.92857 3.21429,2.35714 4.78572,3.14285 8.57142,8.57143 16.42857,17.14286 25,25.71429 3.57142,-2.85714 6.42857,-6.42857 9.28571,-9.28571 -40,-40 -80,-79.28572 -119.285728,-119.285717 z"
       inkscape:connector-curvature="0"
       style="fill:#c6c7cc;fill-opacity:1;stroke-width:7.14285707" />
  </g>
  <g
     inkscape:groupmode="layer"
     id="layer2"
     inkscape:label="unlock"
     style="display:none">
    <path
       d="m 176.85714,115.33333 a 12.952381,12.952381 0 0 1 12.95238,12.95238 v 64.76191 A 12.952381,12.952381 0 0 1 176.85714,206 H 99.142856 c -7.188572,0 -12.952381,-5.82857 -12.952381,-12.95238 V 128.28571 A 12.952381,12.952381 0 0 1 99.142856,115.33333 H 157.42857 V 102.38095 A 19.428571,19.428571 0 0 0 138,82.95238 19.428571,19.428571 0 0 0 118.57143,102.38095 H 105.61905 A 32.380952,32.380952 0 0 1 138,70 a 32.380952,32.380952 0 0 1 32.38095,32.38095 v 12.95238 h 6.47619 M 138,173.61905 A 12.952381,12.952381 0 0 0 150.95238,160.66667 12.952381,12.952381 0 0 0 138,147.71429 12.952381,12.952381 0 0 0 125.04762,160.66667 12.952381,12.952381 0 0 0 138,173.61905 Z"
       id="path2"
       inkscape:connector-curvature="0"
       style="fill:#c6c7cc;fill-opacity:1;stroke-width:6.47619057" />
  </g>
</svg>
