<?xml version="1.0" encoding="UTF-8" standalone="no"?>
<!-- Created with Inkscape (http://www.inkscape.org/) -->

<svg
   xmlns:dc="http://purl.org/dc/elements/1.1/"
   xmlns:cc="http://creativecommons.org/ns#"
   xmlns:rdf="http://www.w3.org/1999/02/22-rdf-syntax-ns#"
   xmlns:svg="http://www.w3.org/2000/svg"
   xmlns="http://www.w3.org/2000/svg"
   xmlns:sodipodi="http://sodipodi.sourceforge.net/DTD/sodipodi-0.dtd"
   xmlns:inkscape="http://www.inkscape.org/namespaces/inkscape"
   width="213"
   height="213"
   viewBox="0 0 56.356249 56.356252"
   version="1.1"
   id="svg8"
   inkscape:export-filename="D:\projects\Smartthings\src\devicetypes\bits\smartbit-metrics.src\tank-90@2x.png"
   inkscape:export-xdpi="96"
   inkscape:export-ydpi="96"
   inkscape:version="0.92.4 (5da689c313, 2019-01-14)"
   sodipodi:docname="icons_tank_level.svg">
  <defs
     id="defs2" />
  <sodipodi:namedview
     id="base"
     pagecolor="#ffffff"
     bordercolor="#666666"
     borderopacity="1.0"
     inkscape:pageopacity="0.0"
     inkscape:pageshadow="2"
     inkscape:zoom="7.9195959"
     inkscape:cx="96.237276"
     inkscape:cy="142.03564"
     inkscape:document-units="mm"
     inkscape:current-layer="layer11"
     showgrid="false"
     units="px"
     inkscape:window-width="3440"
     inkscape:window-height="1377"
     inkscape:window-x="-8"
     inkscape:window-y="-8"
     inkscape:window-maximized="1" />
  <metadata
     id="metadata5">
    <rdf:RDF>
      <cc:Work
         rdf:about="">
        <dc:format>image/svg+xml</dc:format>
        <dc:type
           rdf:resource="http://purl.org/dc/dcmitype/StillImage" />
        <dc:title></dc:title>
      </cc:Work>
    </rdf:RDF>
  </metadata>
  <g
     inkscape:label="100"
     inkscape:groupmode="layer"
     id="layer1"
     transform="translate(0,-240.64373)"
     style="display:none">
    <path
       id="path815"
       d="m 32.99699,260.56684 h -1.723236 v -2.06374 h -6.191258 v 2.06374 h -1.723233 a 1.3723955,1.3723955 0 0 0 -1.372396,1.37241 v 15.82898 c 0,0.75324 0.619126,1.37237 1.372396,1.37237 h 9.637727 a 1.3723955,1.3723955 0 0 0 1.372393,-1.37237 v -15.82898 c 0,-0.75329 -0.619126,-1.37241 -1.372393,-1.37241 z"
       inkscape:connector-curvature="0"
       style="opacity:0.5;fill:#000000;fill-opacity:1;stroke-width:1.03187621"
       inkscape:export-xdpi="96"
       inkscape:export-ydpi="96" />
  </g>
  <g
     inkscape:groupmode="layer"
     id="layer3"
     inkscape:label="10"
     style="display:none">
    <path
       id="path844"
       d="M 32.305629,34.369383 H 24.050617 V 21.986867 h 8.255012 m 0.691357,-2.063765 h -1.723232 v -2.063727 h -6.191258 v 2.063727 h -1.723233 a 1.3723955,1.3723955 0 0 0 -1.372396,1.372411 v 15.828989 c 0,0.753247 0.619126,1.372373 1.372396,1.372373 h 9.637723 a 1.3723955,1.3723955 0 0 0 1.372397,-1.372373 V 21.295513 c 0,-0.753286 -0.619126,-1.372411 -1.372397,-1.372411 z"
       inkscape:connector-curvature="0"
       style="opacity:0.5;stroke-width:1.03187621" />
  </g>
  <g
     inkscape:groupmode="layer"
     id="layer4"
     inkscape:label="20"
     style="display:none;opacity:0.5">
    <path
       id="path872"
       d="M 32.305623,33.337499 H 24.050622 V 21.986877 h 8.255001 M 32.99698,19.923126 H 31.273749 V 17.859375 H 25.0825 v 2.063751 h -1.723235 a 1.3723937,1.3723937 0 0 0 -1.37239,1.372394 v 15.828961 c 0,0.753269 0.619125,1.372394 1.37239,1.372394 h 9.637715 a 1.3723937,1.3723937 0 0 0 1.372394,-1.372394 V 21.29552 c 0,-0.753269 -0.619125,-1.372394 -1.372394,-1.372394 z"
       inkscape:connector-curvature="0"
       style="stroke-width:1.0318749" />
  </g>
  <g
     inkscape:groupmode="layer"
     id="layer5"
     inkscape:label="30"
     style="display:none;opacity:0.5">
    <path
       id="path884"
       d="m 32.305624,31.273752 h -8.254997 v -9.286875 h 8.254997 m 0.691357,-2.063751 H 31.27375 v -2.063751 h -6.191249 v 2.063751 H 23.35927 a 1.3723937,1.3723937 0 0 0 -1.372394,1.372394 v 15.828961 c 0,0.753269 0.619125,1.372394 1.372394,1.372394 h 9.637711 a 1.3723937,1.3723937 0 0 0 1.372394,-1.372394 V 21.29552 c 0,-0.753269 -0.619125,-1.372394 -1.372394,-1.372394 z"
       inkscape:connector-curvature="0"
       style="stroke-width:1.0318749" />
  </g>
  <g
     inkscape:groupmode="layer"
     id="layer6"
     inkscape:label="40"
     style="display:none;opacity:0.5">
    <path
       id="path896"
       d="m 32.305623,30.241874 h -8.255001 v -8.255001 h 8.255001 M 32.99698,19.923126 H 31.273749 V 17.859375 H 25.0825 v 2.063751 h -1.723235 a 1.3723937,1.3723937 0 0 0 -1.37239,1.372394 v 15.828961 c 0,0.753269 0.619125,1.372394 1.37239,1.372394 h 9.637715 a 1.3723937,1.3723937 0 0 0 1.372394,-1.372394 V 21.29552 c 0,-0.753269 -0.619125,-1.372394 -1.372394,-1.372394 z"
       inkscape:connector-curvature="0"
       style="stroke-width:1.0318749" />
  </g>
  <g
     inkscape:groupmode="layer"
     id="layer7"
     inkscape:label="50"
     style="display:none;opacity:0.5">
    <path
       id="path908"
       d="m 32.305628,29.210001 h -8.255001 v -7.223128 h 8.255001 m 0.691357,-2.063747 H 31.27375 v -2.063751 h -6.191249 v 2.063751 H 23.35927 a 1.3723937,1.3723937 0 0 0 -1.372394,1.372394 v 15.828961 c 0,0.753269 0.619125,1.372394 1.372394,1.372394 h 9.637715 a 1.3723937,1.3723937 0 0 0 1.37239,-1.372394 V 21.29552 c 0,-0.753269 -0.619125,-1.372394 -1.37239,-1.372394 z"
       inkscape:connector-curvature="0"
       style="stroke-width:1.0318749" />
  </g>
  <g
     inkscape:groupmode="layer"
     id="layer8"
     inkscape:label="60"
     style="display:none;opacity:0.5">
    <path
       id="path920"
       d="m 32.305624,28.178127 h -8.254997 v -6.19125 h 8.254997 m 0.691357,-2.063751 H 31.27375 v -2.063751 h -6.191249 v 2.063751 H 23.35927 a 1.3723937,1.3723937 0 0 0 -1.372394,1.372394 v 15.828961 c 0,0.753269 0.619125,1.372394 1.372394,1.372394 h 9.637711 a 1.3723937,1.3723937 0 0 0 1.372394,-1.372394 V 21.29552 c 0,-0.753269 -0.619125,-1.372394 -1.372394,-1.372394 z"
       inkscape:connector-curvature="0"
       style="stroke-width:1.0318749" />
  </g>
  <g
     inkscape:groupmode="layer"
     id="layer9"
     inkscape:label="70"
     style="display:none;opacity:0.5">
    <path
       id="path932"
       d="m 32.305624,26.114373 h -8.255002 v -4.127499 h 8.255002 m 0.691357,-2.063751 H 31.27375 v -2.063748 h -6.191251 v 2.063748 h -1.72323 a 1.3723939,1.3723939 0 0 0 -1.372395,1.372394 V 37.12448 c 0,0.75327 0.619125,1.372395 1.372395,1.372395 h 9.637712 A 1.3723939,1.3723939 0 0 0 34.369376,37.12448 V 21.295517 c 0,-0.753269 -0.619126,-1.372394 -1.372395,-1.372394 z"
       inkscape:connector-curvature="0"
       style="stroke-width:1.03187513" />
  </g>
  <g
     inkscape:groupmode="layer"
     id="layer10"
     inkscape:label="80"
     style="display:none;opacity:0.5">
    <path
       id="path944"
       d="m 32.305624,25.082498 h -8.254997 v -3.095625 h 8.254997 m 0.691357,-2.063747 H 31.27375 v -2.063751 h -6.191249 v 2.063751 H 23.35927 a 1.3723937,1.3723937 0 0 0 -1.372394,1.372394 v 15.828961 c 0,0.753269 0.619125,1.372394 1.372394,1.372394 h 9.637711 a 1.3723937,1.3723937 0 0 0 1.372394,-1.372394 V 21.29552 c 0,-0.753269 -0.619125,-1.372394 -1.372394,-1.372394 z"
       inkscape:connector-curvature="0"
       style="stroke-width:1.0318749" />
  </g>
  <g
     inkscape:groupmode="layer"
     id="layer11"
     inkscape:label="90"
     style="opacity:0.5">
    <path
       id="path956"
       d="m 32.305624,24.050625 h -8.255001 v -2.063748 h 8.255001 m 0.691357,-2.063751 H 31.27375 v -2.063751 h -6.191249 v 2.063751 h -1.723235 a 1.3723937,1.3723937 0 0 0 -1.37239,1.372394 v 15.828961 c 0,0.753269 0.619125,1.372394 1.37239,1.372394 h 9.637715 a 1.3723937,1.3723937 0 0 0 1.372394,-1.372394 V 21.29552 c 0,-0.753269 -0.619125,-1.372394 -1.372394,-1.372394 z"
       inkscape:connector-curvature="0"
       style="stroke-width:1.0318749" />
  </g>
  <g
     inkscape:groupmode="layer"
     id="layer2"
     inkscape:label="Corte"
     style="display:none">
    <rect
       style="opacity:0.5;fill:#000000;fill-opacity:1;stroke:none;stroke-width:0.61699998;stroke-miterlimit:4;stroke-dasharray:none;stroke-opacity:1"
       id="rect826"
       width="20.446119"
       height="3.9422255"
       x="18.506094"
       y="15.996018" />
  </g>
</svg>
